<mxfile host="app.diagrams.net" modified="2022-05-17T09:46:14.073Z" agent="5.0 (Windows NT 10.0; Win64; x64) AppleWebKit/537.36 (KHTML, like Gecko) Chrome/101.0.4951.64 Safari/537.36 Edg/101.0.1210.47" etag="fRqLEmz15qMiBFSfVNlE" version="18.0.6" type="github">
  <diagram id="R2lEEEUBdFMjLlhIrx00" name="Page-1">
    <mxGraphModel dx="586" dy="566" grid="0" gridSize="10" guides="1" tooltips="1" connect="1" arrows="1" fold="1" page="1" pageScale="1" pageWidth="850" pageHeight="1100" math="0" shadow="0" extFonts="Permanent Marker^https://fonts.googleapis.com/css?family=Permanent+Marker">
      <root>
        <mxCell id="0" />
        <mxCell id="1" parent="0" />
        <mxCell id="z80ZJ2VIJwZ441V7eBd7-15" style="edgeStyle=none;curved=1;rounded=0;orthogonalLoop=1;jettySize=auto;html=1;entryX=0;entryY=0.5;entryDx=0;entryDy=0;endArrow=open;startSize=14;endSize=14;sourcePerimeterSpacing=8;targetPerimeterSpacing=8;exitX=1;exitY=0.5;exitDx=0;exitDy=0;" edge="1" parent="1" source="z80ZJ2VIJwZ441V7eBd7-1" target="z80ZJ2VIJwZ441V7eBd7-4">
          <mxGeometry relative="1" as="geometry" />
        </mxCell>
        <mxCell id="z80ZJ2VIJwZ441V7eBd7-1" value="Disponent" style="rounded=0;whiteSpace=wrap;html=1;hachureGap=4;" vertex="1" parent="1">
          <mxGeometry y="130" width="120" height="60" as="geometry" />
        </mxCell>
        <mxCell id="z80ZJ2VIJwZ441V7eBd7-30" style="edgeStyle=none;curved=1;rounded=0;orthogonalLoop=1;jettySize=auto;html=1;entryX=0.5;entryY=1;entryDx=0;entryDy=0;endArrow=open;startSize=14;endSize=14;sourcePerimeterSpacing=8;targetPerimeterSpacing=8;exitX=0.5;exitY=0;exitDx=0;exitDy=0;" edge="1" parent="1" source="z80ZJ2VIJwZ441V7eBd7-2" target="z80ZJ2VIJwZ441V7eBd7-29">
          <mxGeometry relative="1" as="geometry" />
        </mxCell>
        <mxCell id="z80ZJ2VIJwZ441V7eBd7-2" value="Fahrer&lt;br&gt;" style="rounded=0;whiteSpace=wrap;html=1;hachureGap=4;" vertex="1" parent="1">
          <mxGeometry x="640" y="350" width="120" height="60" as="geometry" />
        </mxCell>
        <mxCell id="z80ZJ2VIJwZ441V7eBd7-16" style="edgeStyle=none;curved=1;rounded=0;orthogonalLoop=1;jettySize=auto;html=1;entryX=0;entryY=0.5;entryDx=0;entryDy=0;endArrow=open;startSize=14;endSize=14;sourcePerimeterSpacing=8;targetPerimeterSpacing=8;exitX=1;exitY=0.5;exitDx=0;exitDy=0;" edge="1" parent="1" source="z80ZJ2VIJwZ441V7eBd7-4" target="z80ZJ2VIJwZ441V7eBd7-7">
          <mxGeometry relative="1" as="geometry" />
        </mxCell>
        <mxCell id="z80ZJ2VIJwZ441V7eBd7-4" value="organisieren" style="rhombus;whiteSpace=wrap;html=1;hachureGap=4;" vertex="1" parent="1">
          <mxGeometry x="170" y="140" width="100" height="40" as="geometry" />
        </mxCell>
        <mxCell id="z80ZJ2VIJwZ441V7eBd7-23" style="edgeStyle=none;curved=1;rounded=0;orthogonalLoop=1;jettySize=auto;html=1;entryX=0;entryY=0.5;entryDx=0;entryDy=0;endArrow=open;startSize=14;endSize=14;sourcePerimeterSpacing=8;targetPerimeterSpacing=8;exitX=1;exitY=0.5;exitDx=0;exitDy=0;" edge="1" parent="1" source="z80ZJ2VIJwZ441V7eBd7-7" target="z80ZJ2VIJwZ441V7eBd7-18">
          <mxGeometry relative="1" as="geometry" />
        </mxCell>
        <mxCell id="z80ZJ2VIJwZ441V7eBd7-7" value="Fahrt" style="rounded=0;whiteSpace=wrap;html=1;hachureGap=4;" vertex="1" parent="1">
          <mxGeometry x="310" y="130" width="120" height="60" as="geometry" />
        </mxCell>
        <mxCell id="z80ZJ2VIJwZ441V7eBd7-9" value="Station" style="rounded=0;whiteSpace=wrap;html=1;hachureGap=4;" vertex="1" parent="1">
          <mxGeometry x="640" y="130" width="120" height="60" as="geometry" />
        </mxCell>
        <mxCell id="z80ZJ2VIJwZ441V7eBd7-27" style="edgeStyle=none;curved=1;rounded=0;orthogonalLoop=1;jettySize=auto;html=1;entryX=0.5;entryY=1;entryDx=0;entryDy=0;endArrow=open;startSize=14;endSize=14;sourcePerimeterSpacing=8;targetPerimeterSpacing=8;exitX=0.5;exitY=0;exitDx=0;exitDy=0;" edge="1" parent="1" source="z80ZJ2VIJwZ441V7eBd7-12" target="z80ZJ2VIJwZ441V7eBd7-24">
          <mxGeometry relative="1" as="geometry" />
        </mxCell>
        <mxCell id="z80ZJ2VIJwZ441V7eBd7-12" value="Fahrzeug" style="rounded=0;whiteSpace=wrap;html=1;hachureGap=4;" vertex="1" parent="1">
          <mxGeometry x="310" y="350" width="120" height="60" as="geometry" />
        </mxCell>
        <mxCell id="z80ZJ2VIJwZ441V7eBd7-22" style="edgeStyle=none;curved=1;rounded=0;orthogonalLoop=1;jettySize=auto;html=1;endArrow=open;startSize=14;endSize=14;sourcePerimeterSpacing=8;targetPerimeterSpacing=8;entryX=0;entryY=0.5;entryDx=0;entryDy=0;exitX=1;exitY=0.5;exitDx=0;exitDy=0;" edge="1" parent="1" source="z80ZJ2VIJwZ441V7eBd7-18" target="z80ZJ2VIJwZ441V7eBd7-9">
          <mxGeometry relative="1" as="geometry" />
        </mxCell>
        <mxCell id="z80ZJ2VIJwZ441V7eBd7-18" value="hat" style="rhombus;whiteSpace=wrap;html=1;hachureGap=4;" vertex="1" parent="1">
          <mxGeometry x="490" y="140" width="100" height="40" as="geometry" />
        </mxCell>
        <mxCell id="z80ZJ2VIJwZ441V7eBd7-28" style="edgeStyle=none;curved=1;rounded=0;orthogonalLoop=1;jettySize=auto;html=1;entryX=0.5;entryY=1;entryDx=0;entryDy=0;endArrow=open;startSize=14;endSize=14;sourcePerimeterSpacing=8;targetPerimeterSpacing=8;exitX=0.5;exitY=0;exitDx=0;exitDy=0;" edge="1" parent="1" source="z80ZJ2VIJwZ441V7eBd7-24" target="z80ZJ2VIJwZ441V7eBd7-7">
          <mxGeometry relative="1" as="geometry" />
        </mxCell>
        <mxCell id="z80ZJ2VIJwZ441V7eBd7-24" value="fährt" style="rhombus;whiteSpace=wrap;html=1;hachureGap=4;" vertex="1" parent="1">
          <mxGeometry x="320" y="240" width="100" height="40" as="geometry" />
        </mxCell>
        <mxCell id="z80ZJ2VIJwZ441V7eBd7-31" style="edgeStyle=none;curved=1;rounded=0;orthogonalLoop=1;jettySize=auto;html=1;entryX=0.5;entryY=1;entryDx=0;entryDy=0;endArrow=open;startSize=14;endSize=14;sourcePerimeterSpacing=8;targetPerimeterSpacing=8;exitX=0.5;exitY=0;exitDx=0;exitDy=0;" edge="1" parent="1" source="z80ZJ2VIJwZ441V7eBd7-29" target="z80ZJ2VIJwZ441V7eBd7-9">
          <mxGeometry relative="1" as="geometry" />
        </mxCell>
        <mxCell id="z80ZJ2VIJwZ441V7eBd7-29" value="fährt ab&amp;nbsp;" style="rhombus;whiteSpace=wrap;html=1;hachureGap=4;" vertex="1" parent="1">
          <mxGeometry x="650" y="250" width="100" height="40" as="geometry" />
        </mxCell>
        <mxCell id="z80ZJ2VIJwZ441V7eBd7-34" value="Person" style="shape=table;startSize=30;container=1;collapsible=1;childLayout=tableLayout;fixedRows=1;rowLines=0;fontStyle=1;align=center;resizeLast=1;hachureGap=4;" vertex="1" parent="1">
          <mxGeometry x="1000" y="540" width="280" height="160" as="geometry" />
        </mxCell>
        <mxCell id="z80ZJ2VIJwZ441V7eBd7-35" value="" style="shape=partialRectangle;collapsible=0;dropTarget=0;pointerEvents=0;fillColor=none;points=[[0,0.5],[1,0.5]];portConstraint=eastwest;top=0;left=0;right=0;bottom=1;hachureGap=4;" vertex="1" parent="z80ZJ2VIJwZ441V7eBd7-34">
          <mxGeometry y="30" width="280" height="30" as="geometry" />
        </mxCell>
        <mxCell id="z80ZJ2VIJwZ441V7eBd7-36" value="PK" style="shape=partialRectangle;overflow=hidden;connectable=0;fillColor=none;top=0;left=0;bottom=0;right=0;fontStyle=1;hachureGap=4;" vertex="1" parent="z80ZJ2VIJwZ441V7eBd7-35">
          <mxGeometry width="30" height="30" as="geometry">
            <mxRectangle width="30" height="30" as="alternateBounds" />
          </mxGeometry>
        </mxCell>
        <mxCell id="z80ZJ2VIJwZ441V7eBd7-37" value="person_id int NOT NULL " style="shape=partialRectangle;overflow=hidden;connectable=0;fillColor=none;top=0;left=0;bottom=0;right=0;align=left;spacingLeft=6;fontStyle=5;hachureGap=4;" vertex="1" parent="z80ZJ2VIJwZ441V7eBd7-35">
          <mxGeometry x="30" width="250" height="30" as="geometry">
            <mxRectangle width="250" height="30" as="alternateBounds" />
          </mxGeometry>
        </mxCell>
        <mxCell id="z80ZJ2VIJwZ441V7eBd7-38" value="" style="shape=partialRectangle;collapsible=0;dropTarget=0;pointerEvents=0;fillColor=none;points=[[0,0.5],[1,0.5]];portConstraint=eastwest;top=0;left=0;right=0;bottom=0;hachureGap=4;" vertex="1" parent="z80ZJ2VIJwZ441V7eBd7-34">
          <mxGeometry y="60" width="280" height="30" as="geometry" />
        </mxCell>
        <mxCell id="z80ZJ2VIJwZ441V7eBd7-39" value="" style="shape=partialRectangle;overflow=hidden;connectable=0;fillColor=none;top=0;left=0;bottom=0;right=0;hachureGap=4;" vertex="1" parent="z80ZJ2VIJwZ441V7eBd7-38">
          <mxGeometry width="30" height="30" as="geometry">
            <mxRectangle width="30" height="30" as="alternateBounds" />
          </mxGeometry>
        </mxCell>
        <mxCell id="z80ZJ2VIJwZ441V7eBd7-40" value="vorname varchar NOT NULL" style="shape=partialRectangle;overflow=hidden;connectable=0;fillColor=none;top=0;left=0;bottom=0;right=0;align=left;spacingLeft=6;hachureGap=4;" vertex="1" parent="z80ZJ2VIJwZ441V7eBd7-38">
          <mxGeometry x="30" width="250" height="30" as="geometry">
            <mxRectangle width="250" height="30" as="alternateBounds" />
          </mxGeometry>
        </mxCell>
        <mxCell id="z80ZJ2VIJwZ441V7eBd7-41" value="" style="shape=partialRectangle;collapsible=0;dropTarget=0;pointerEvents=0;fillColor=none;points=[[0,0.5],[1,0.5]];portConstraint=eastwest;top=0;left=0;right=0;bottom=0;hachureGap=4;" vertex="1" parent="z80ZJ2VIJwZ441V7eBd7-34">
          <mxGeometry y="90" width="280" height="30" as="geometry" />
        </mxCell>
        <mxCell id="z80ZJ2VIJwZ441V7eBd7-42" value="" style="shape=partialRectangle;overflow=hidden;connectable=0;fillColor=none;top=0;left=0;bottom=0;right=0;hachureGap=4;" vertex="1" parent="z80ZJ2VIJwZ441V7eBd7-41">
          <mxGeometry width="30" height="30" as="geometry">
            <mxRectangle width="30" height="30" as="alternateBounds" />
          </mxGeometry>
        </mxCell>
        <mxCell id="z80ZJ2VIJwZ441V7eBd7-43" value="nachname varchar NOT NULL" style="shape=partialRectangle;overflow=hidden;connectable=0;fillColor=none;top=0;left=0;bottom=0;right=0;align=left;spacingLeft=6;hachureGap=4;" vertex="1" parent="z80ZJ2VIJwZ441V7eBd7-41">
          <mxGeometry x="30" width="250" height="30" as="geometry">
            <mxRectangle width="250" height="30" as="alternateBounds" />
          </mxGeometry>
        </mxCell>
        <mxCell id="z80ZJ2VIJwZ441V7eBd7-61" value="" style="shape=partialRectangle;collapsible=0;dropTarget=0;pointerEvents=0;fillColor=none;points=[[0,0.5],[1,0.5]];portConstraint=eastwest;top=0;left=0;right=0;bottom=0;hachureGap=4;" vertex="1" parent="z80ZJ2VIJwZ441V7eBd7-34">
          <mxGeometry y="120" width="280" height="30" as="geometry" />
        </mxCell>
        <mxCell id="z80ZJ2VIJwZ441V7eBd7-62" value="" style="shape=partialRectangle;overflow=hidden;connectable=0;fillColor=none;top=0;left=0;bottom=0;right=0;hachureGap=4;" vertex="1" parent="z80ZJ2VIJwZ441V7eBd7-61">
          <mxGeometry width="30" height="30" as="geometry">
            <mxRectangle width="30" height="30" as="alternateBounds" />
          </mxGeometry>
        </mxCell>
        <mxCell id="z80ZJ2VIJwZ441V7eBd7-63" value="telefonnummer varchar NOT NULL" style="shape=partialRectangle;overflow=hidden;connectable=0;fillColor=none;top=0;left=0;bottom=0;right=0;align=left;spacingLeft=6;hachureGap=4;" vertex="1" parent="z80ZJ2VIJwZ441V7eBd7-61">
          <mxGeometry x="30" width="250" height="30" as="geometry">
            <mxRectangle width="250" height="30" as="alternateBounds" />
          </mxGeometry>
        </mxCell>
        <mxCell id="z80ZJ2VIJwZ441V7eBd7-44" value="Fahrt" style="shape=table;startSize=30;container=1;collapsible=1;childLayout=tableLayout;fixedRows=1;rowLines=0;fontStyle=1;align=center;resizeLast=1;hachureGap=4;" vertex="1" parent="1">
          <mxGeometry x="860" y="160" width="290" height="160" as="geometry" />
        </mxCell>
        <mxCell id="z80ZJ2VIJwZ441V7eBd7-45" value="" style="shape=partialRectangle;collapsible=0;dropTarget=0;pointerEvents=0;fillColor=none;points=[[0,0.5],[1,0.5]];portConstraint=eastwest;top=0;left=0;right=0;bottom=1;hachureGap=4;" vertex="1" parent="z80ZJ2VIJwZ441V7eBd7-44">
          <mxGeometry y="30" width="290" height="30" as="geometry" />
        </mxCell>
        <mxCell id="z80ZJ2VIJwZ441V7eBd7-46" value="PK" style="shape=partialRectangle;overflow=hidden;connectable=0;fillColor=none;top=0;left=0;bottom=0;right=0;fontStyle=1;hachureGap=4;" vertex="1" parent="z80ZJ2VIJwZ441V7eBd7-45">
          <mxGeometry width="30" height="30" as="geometry">
            <mxRectangle width="30" height="30" as="alternateBounds" />
          </mxGeometry>
        </mxCell>
        <mxCell id="z80ZJ2VIJwZ441V7eBd7-47" value="fahrt_id int NOT NULL " style="shape=partialRectangle;overflow=hidden;connectable=0;fillColor=none;top=0;left=0;bottom=0;right=0;align=left;spacingLeft=6;fontStyle=5;hachureGap=4;" vertex="1" parent="z80ZJ2VIJwZ441V7eBd7-45">
          <mxGeometry x="30" width="260" height="30" as="geometry">
            <mxRectangle width="260" height="30" as="alternateBounds" />
          </mxGeometry>
        </mxCell>
        <mxCell id="z80ZJ2VIJwZ441V7eBd7-48" value="" style="shape=partialRectangle;collapsible=0;dropTarget=0;pointerEvents=0;fillColor=none;points=[[0,0.5],[1,0.5]];portConstraint=eastwest;top=0;left=0;right=0;bottom=0;hachureGap=4;" vertex="1" parent="z80ZJ2VIJwZ441V7eBd7-44">
          <mxGeometry y="60" width="290" height="30" as="geometry" />
        </mxCell>
        <mxCell id="z80ZJ2VIJwZ441V7eBd7-49" value="FK1" style="shape=partialRectangle;overflow=hidden;connectable=0;fillColor=none;top=0;left=0;bottom=0;right=0;hachureGap=4;" vertex="1" parent="z80ZJ2VIJwZ441V7eBd7-48">
          <mxGeometry width="30" height="30" as="geometry">
            <mxRectangle width="30" height="30" as="alternateBounds" />
          </mxGeometry>
        </mxCell>
        <mxCell id="z80ZJ2VIJwZ441V7eBd7-50" value="disponent_id int NOT NULL" style="shape=partialRectangle;overflow=hidden;connectable=0;fillColor=none;top=0;left=0;bottom=0;right=0;align=left;spacingLeft=6;hachureGap=4;" vertex="1" parent="z80ZJ2VIJwZ441V7eBd7-48">
          <mxGeometry x="30" width="260" height="30" as="geometry">
            <mxRectangle width="260" height="30" as="alternateBounds" />
          </mxGeometry>
        </mxCell>
        <mxCell id="z80ZJ2VIJwZ441V7eBd7-51" value="" style="shape=partialRectangle;collapsible=0;dropTarget=0;pointerEvents=0;fillColor=none;points=[[0,0.5],[1,0.5]];portConstraint=eastwest;top=0;left=0;right=0;bottom=0;hachureGap=4;" vertex="1" parent="z80ZJ2VIJwZ441V7eBd7-44">
          <mxGeometry y="90" width="290" height="30" as="geometry" />
        </mxCell>
        <mxCell id="z80ZJ2VIJwZ441V7eBd7-52" value="FK2" style="shape=partialRectangle;overflow=hidden;connectable=0;fillColor=none;top=0;left=0;bottom=0;right=0;hachureGap=4;" vertex="1" parent="z80ZJ2VIJwZ441V7eBd7-51">
          <mxGeometry width="30" height="30" as="geometry">
            <mxRectangle width="30" height="30" as="alternateBounds" />
          </mxGeometry>
        </mxCell>
        <mxCell id="z80ZJ2VIJwZ441V7eBd7-53" value="fahrzeugkennzeichen varchar NOT NULL" style="shape=partialRectangle;overflow=hidden;connectable=0;fillColor=none;top=0;left=0;bottom=0;right=0;align=left;spacingLeft=6;hachureGap=4;" vertex="1" parent="z80ZJ2VIJwZ441V7eBd7-51">
          <mxGeometry x="30" width="260" height="30" as="geometry">
            <mxRectangle width="260" height="30" as="alternateBounds" />
          </mxGeometry>
        </mxCell>
        <mxCell id="z80ZJ2VIJwZ441V7eBd7-83" value="" style="shape=partialRectangle;collapsible=0;dropTarget=0;pointerEvents=0;fillColor=none;points=[[0,0.5],[1,0.5]];portConstraint=eastwest;top=0;left=0;right=0;bottom=0;hachureGap=4;" vertex="1" parent="z80ZJ2VIJwZ441V7eBd7-44">
          <mxGeometry y="120" width="290" height="30" as="geometry" />
        </mxCell>
        <mxCell id="z80ZJ2VIJwZ441V7eBd7-84" value="FK3" style="shape=partialRectangle;overflow=hidden;connectable=0;fillColor=none;top=0;left=0;bottom=0;right=0;hachureGap=4;" vertex="1" parent="z80ZJ2VIJwZ441V7eBd7-83">
          <mxGeometry width="30" height="30" as="geometry">
            <mxRectangle width="30" height="30" as="alternateBounds" />
          </mxGeometry>
        </mxCell>
        <mxCell id="z80ZJ2VIJwZ441V7eBd7-85" value="plz_station int NOT NULL" style="shape=partialRectangle;overflow=hidden;connectable=0;fillColor=none;top=0;left=0;bottom=0;right=0;align=left;spacingLeft=6;hachureGap=4;" vertex="1" parent="z80ZJ2VIJwZ441V7eBd7-83">
          <mxGeometry x="30" width="260" height="30" as="geometry">
            <mxRectangle width="260" height="30" as="alternateBounds" />
          </mxGeometry>
        </mxCell>
        <mxCell id="z80ZJ2VIJwZ441V7eBd7-54" value="Fahrzeug" style="shape=table;startSize=30;container=1;collapsible=1;childLayout=tableLayout;fixedRows=1;rowLines=0;fontStyle=1;align=center;resizeLast=1;hachureGap=4;" vertex="1" parent="1">
          <mxGeometry x="850" width="280" height="100" as="geometry" />
        </mxCell>
        <mxCell id="z80ZJ2VIJwZ441V7eBd7-55" value="" style="shape=partialRectangle;collapsible=0;dropTarget=0;pointerEvents=0;fillColor=none;points=[[0,0.5],[1,0.5]];portConstraint=eastwest;top=0;left=0;right=0;bottom=1;hachureGap=4;" vertex="1" parent="z80ZJ2VIJwZ441V7eBd7-54">
          <mxGeometry y="30" width="280" height="30" as="geometry" />
        </mxCell>
        <mxCell id="z80ZJ2VIJwZ441V7eBd7-56" value="PK" style="shape=partialRectangle;overflow=hidden;connectable=0;fillColor=none;top=0;left=0;bottom=0;right=0;fontStyle=1;hachureGap=4;" vertex="1" parent="z80ZJ2VIJwZ441V7eBd7-55">
          <mxGeometry width="30" height="30" as="geometry">
            <mxRectangle width="30" height="30" as="alternateBounds" />
          </mxGeometry>
        </mxCell>
        <mxCell id="z80ZJ2VIJwZ441V7eBd7-57" value="fahzeugkennzeichen varchar NOT NULL " style="shape=partialRectangle;overflow=hidden;connectable=0;fillColor=none;top=0;left=0;bottom=0;right=0;align=left;spacingLeft=6;fontStyle=5;hachureGap=4;" vertex="1" parent="z80ZJ2VIJwZ441V7eBd7-55">
          <mxGeometry x="30" width="250" height="30" as="geometry">
            <mxRectangle width="250" height="30" as="alternateBounds" />
          </mxGeometry>
        </mxCell>
        <mxCell id="z80ZJ2VIJwZ441V7eBd7-58" value="" style="shape=partialRectangle;collapsible=0;dropTarget=0;pointerEvents=0;fillColor=none;points=[[0,0.5],[1,0.5]];portConstraint=eastwest;top=0;left=0;right=0;bottom=0;hachureGap=4;" vertex="1" parent="z80ZJ2VIJwZ441V7eBd7-54">
          <mxGeometry y="60" width="280" height="30" as="geometry" />
        </mxCell>
        <mxCell id="z80ZJ2VIJwZ441V7eBd7-59" value="" style="shape=partialRectangle;overflow=hidden;connectable=0;fillColor=none;top=0;left=0;bottom=0;right=0;hachureGap=4;" vertex="1" parent="z80ZJ2VIJwZ441V7eBd7-58">
          <mxGeometry width="30" height="30" as="geometry">
            <mxRectangle width="30" height="30" as="alternateBounds" />
          </mxGeometry>
        </mxCell>
        <mxCell id="z80ZJ2VIJwZ441V7eBd7-60" value="sitzplätze int NOT NULL" style="shape=partialRectangle;overflow=hidden;connectable=0;fillColor=none;top=0;left=0;bottom=0;right=0;align=left;spacingLeft=6;hachureGap=4;" vertex="1" parent="z80ZJ2VIJwZ441V7eBd7-58">
          <mxGeometry x="30" width="250" height="30" as="geometry">
            <mxRectangle width="250" height="30" as="alternateBounds" />
          </mxGeometry>
        </mxCell>
        <mxCell id="z80ZJ2VIJwZ441V7eBd7-64" value="" style="edgeStyle=elbowEdgeStyle;fontSize=12;html=1;endArrow=ERoneToMany;rounded=0;startSize=14;endSize=14;sourcePerimeterSpacing=8;targetPerimeterSpacing=8;exitX=1;exitY=0.5;exitDx=0;exitDy=0;entryX=1;entryY=0.5;entryDx=0;entryDy=0;" edge="1" parent="1" source="z80ZJ2VIJwZ441V7eBd7-121" target="z80ZJ2VIJwZ441V7eBd7-48">
          <mxGeometry width="100" height="100" relative="1" as="geometry">
            <mxPoint x="1150" y="485" as="sourcePoint" />
            <mxPoint x="1170" y="230" as="targetPoint" />
            <Array as="points">
              <mxPoint x="1196" y="247" />
              <mxPoint x="1180" y="340" />
            </Array>
          </mxGeometry>
        </mxCell>
        <mxCell id="z80ZJ2VIJwZ441V7eBd7-66" value="" style="edgeStyle=elbowEdgeStyle;fontSize=12;html=1;endArrow=ERzeroToMany;startArrow=ERmandOne;rounded=0;startSize=14;endSize=14;sourcePerimeterSpacing=8;targetPerimeterSpacing=8;exitX=1;exitY=0.5;exitDx=0;exitDy=0;entryX=1;entryY=0.5;entryDx=0;entryDy=0;" edge="1" parent="1" source="z80ZJ2VIJwZ441V7eBd7-55" target="z80ZJ2VIJwZ441V7eBd7-51">
          <mxGeometry width="100" height="100" relative="1" as="geometry">
            <mxPoint x="1020" y="540" as="sourcePoint" />
            <mxPoint x="1120" y="440" as="targetPoint" />
            <Array as="points">
              <mxPoint x="1280" y="90" />
              <mxPoint x="1150" y="340" />
            </Array>
          </mxGeometry>
        </mxCell>
        <mxCell id="z80ZJ2VIJwZ441V7eBd7-67" value="Station" style="shape=table;startSize=30;container=1;collapsible=1;childLayout=tableLayout;fixedRows=1;rowLines=0;fontStyle=1;align=center;resizeLast=1;hachureGap=4;" vertex="1" parent="1">
          <mxGeometry x="1360" y="160" width="200" height="180" as="geometry" />
        </mxCell>
        <mxCell id="z80ZJ2VIJwZ441V7eBd7-68" value="" style="shape=tableRow;horizontal=0;startSize=0;swimlaneHead=0;swimlaneBody=0;fillColor=none;collapsible=0;dropTarget=0;points=[[0,0.5],[1,0.5]];portConstraint=eastwest;top=0;left=0;right=0;bottom=1;hachureGap=4;" vertex="1" parent="z80ZJ2VIJwZ441V7eBd7-67">
          <mxGeometry y="30" width="200" height="30" as="geometry" />
        </mxCell>
        <mxCell id="z80ZJ2VIJwZ441V7eBd7-69" value="PK" style="shape=partialRectangle;connectable=0;fillColor=none;top=0;left=0;bottom=0;right=0;fontStyle=1;overflow=hidden;hachureGap=4;" vertex="1" parent="z80ZJ2VIJwZ441V7eBd7-68">
          <mxGeometry width="30" height="30" as="geometry">
            <mxRectangle width="30" height="30" as="alternateBounds" />
          </mxGeometry>
        </mxCell>
        <mxCell id="z80ZJ2VIJwZ441V7eBd7-70" value="station_id int NOT NULL" style="shape=partialRectangle;connectable=0;fillColor=none;top=0;left=0;bottom=0;right=0;align=left;spacingLeft=6;fontStyle=5;overflow=hidden;hachureGap=4;" vertex="1" parent="z80ZJ2VIJwZ441V7eBd7-68">
          <mxGeometry x="30" width="170" height="30" as="geometry">
            <mxRectangle width="170" height="30" as="alternateBounds" />
          </mxGeometry>
        </mxCell>
        <mxCell id="z80ZJ2VIJwZ441V7eBd7-71" value="" style="shape=tableRow;horizontal=0;startSize=0;swimlaneHead=0;swimlaneBody=0;fillColor=none;collapsible=0;dropTarget=0;points=[[0,0.5],[1,0.5]];portConstraint=eastwest;top=0;left=0;right=0;bottom=0;hachureGap=4;" vertex="1" parent="z80ZJ2VIJwZ441V7eBd7-67">
          <mxGeometry y="60" width="200" height="30" as="geometry" />
        </mxCell>
        <mxCell id="z80ZJ2VIJwZ441V7eBd7-72" value="FK2" style="shape=partialRectangle;connectable=0;fillColor=none;top=0;left=0;bottom=0;right=0;editable=1;overflow=hidden;hachureGap=4;" vertex="1" parent="z80ZJ2VIJwZ441V7eBd7-71">
          <mxGeometry width="30" height="30" as="geometry">
            <mxRectangle width="30" height="30" as="alternateBounds" />
          </mxGeometry>
        </mxCell>
        <mxCell id="z80ZJ2VIJwZ441V7eBd7-73" value="plz_ort int NOT NULL" style="shape=partialRectangle;connectable=0;fillColor=none;top=0;left=0;bottom=0;right=0;align=left;spacingLeft=6;overflow=hidden;hachureGap=4;" vertex="1" parent="z80ZJ2VIJwZ441V7eBd7-71">
          <mxGeometry x="30" width="170" height="30" as="geometry">
            <mxRectangle width="170" height="30" as="alternateBounds" />
          </mxGeometry>
        </mxCell>
        <mxCell id="z80ZJ2VIJwZ441V7eBd7-74" value="" style="shape=tableRow;horizontal=0;startSize=0;swimlaneHead=0;swimlaneBody=0;fillColor=none;collapsible=0;dropTarget=0;points=[[0,0.5],[1,0.5]];portConstraint=eastwest;top=0;left=0;right=0;bottom=0;hachureGap=4;" vertex="1" parent="z80ZJ2VIJwZ441V7eBd7-67">
          <mxGeometry y="90" width="200" height="20" as="geometry" />
        </mxCell>
        <mxCell id="z80ZJ2VIJwZ441V7eBd7-75" value="" style="shape=partialRectangle;connectable=0;fillColor=none;top=0;left=0;bottom=0;right=0;editable=1;overflow=hidden;hachureGap=4;" vertex="1" parent="z80ZJ2VIJwZ441V7eBd7-74">
          <mxGeometry width="30" height="20" as="geometry">
            <mxRectangle width="30" height="20" as="alternateBounds" />
          </mxGeometry>
        </mxCell>
        <mxCell id="z80ZJ2VIJwZ441V7eBd7-76" value="ankunftszeit datetime " style="shape=partialRectangle;connectable=0;fillColor=none;top=0;left=0;bottom=0;right=0;align=left;spacingLeft=6;overflow=hidden;hachureGap=4;" vertex="1" parent="z80ZJ2VIJwZ441V7eBd7-74">
          <mxGeometry x="30" width="170" height="20" as="geometry">
            <mxRectangle width="170" height="20" as="alternateBounds" />
          </mxGeometry>
        </mxCell>
        <mxCell id="z80ZJ2VIJwZ441V7eBd7-77" value="" style="shape=tableRow;horizontal=0;startSize=0;swimlaneHead=0;swimlaneBody=0;fillColor=none;collapsible=0;dropTarget=0;points=[[0,0.5],[1,0.5]];portConstraint=eastwest;top=0;left=0;right=0;bottom=0;hachureGap=4;" vertex="1" parent="z80ZJ2VIJwZ441V7eBd7-67">
          <mxGeometry y="110" width="200" height="30" as="geometry" />
        </mxCell>
        <mxCell id="z80ZJ2VIJwZ441V7eBd7-78" value="" style="shape=partialRectangle;connectable=0;fillColor=none;top=0;left=0;bottom=0;right=0;editable=1;overflow=hidden;hachureGap=4;" vertex="1" parent="z80ZJ2VIJwZ441V7eBd7-77">
          <mxGeometry width="30" height="30" as="geometry">
            <mxRectangle width="30" height="30" as="alternateBounds" />
          </mxGeometry>
        </mxCell>
        <mxCell id="z80ZJ2VIJwZ441V7eBd7-79" value="abfahrtszeit datetime" style="shape=partialRectangle;connectable=0;fillColor=none;top=0;left=0;bottom=0;right=0;align=left;spacingLeft=6;overflow=hidden;hachureGap=4;" vertex="1" parent="z80ZJ2VIJwZ441V7eBd7-77">
          <mxGeometry x="30" width="170" height="30" as="geometry">
            <mxRectangle width="170" height="30" as="alternateBounds" />
          </mxGeometry>
        </mxCell>
        <mxCell id="z80ZJ2VIJwZ441V7eBd7-80" value="" style="shape=tableRow;horizontal=0;startSize=0;swimlaneHead=0;swimlaneBody=0;fillColor=none;collapsible=0;dropTarget=0;points=[[0,0.5],[1,0.5]];portConstraint=eastwest;top=0;left=0;right=0;bottom=0;hachureGap=4;" vertex="1" parent="z80ZJ2VIJwZ441V7eBd7-67">
          <mxGeometry y="140" width="200" height="30" as="geometry" />
        </mxCell>
        <mxCell id="z80ZJ2VIJwZ441V7eBd7-81" value="FK1" style="shape=partialRectangle;connectable=0;fillColor=none;top=0;left=0;bottom=0;right=0;editable=1;overflow=hidden;hachureGap=4;" vertex="1" parent="z80ZJ2VIJwZ441V7eBd7-80">
          <mxGeometry width="30" height="30" as="geometry">
            <mxRectangle width="30" height="30" as="alternateBounds" />
          </mxGeometry>
        </mxCell>
        <mxCell id="z80ZJ2VIJwZ441V7eBd7-82" value="driver_id int NOT NULL" style="shape=partialRectangle;connectable=0;fillColor=none;top=0;left=0;bottom=0;right=0;align=left;spacingLeft=6;overflow=hidden;hachureGap=4;" vertex="1" parent="z80ZJ2VIJwZ441V7eBd7-80">
          <mxGeometry x="30" width="170" height="30" as="geometry">
            <mxRectangle width="170" height="30" as="alternateBounds" />
          </mxGeometry>
        </mxCell>
        <mxCell id="z80ZJ2VIJwZ441V7eBd7-86" value="" style="edgeStyle=orthogonalEdgeStyle;fontSize=12;html=1;endArrow=ERmany;startArrow=ERmany;rounded=0;startSize=14;endSize=14;sourcePerimeterSpacing=8;targetPerimeterSpacing=8;entryX=0;entryY=0.5;entryDx=0;entryDy=0;exitX=1;exitY=0.5;exitDx=0;exitDy=0;" edge="1" parent="1" source="z80ZJ2VIJwZ441V7eBd7-83" target="z80ZJ2VIJwZ441V7eBd7-68">
          <mxGeometry width="100" height="100" relative="1" as="geometry">
            <mxPoint x="1360" y="480" as="sourcePoint" />
            <mxPoint x="1460" y="380" as="targetPoint" />
            <Array as="points">
              <mxPoint x="1319" y="295" />
              <mxPoint x="1319" y="205" />
            </Array>
          </mxGeometry>
        </mxCell>
        <mxCell id="z80ZJ2VIJwZ441V7eBd7-103" value="" style="edgeStyle=elbowEdgeStyle;fontSize=12;html=1;endArrow=ERmany;startArrow=ERmany;rounded=0;startSize=14;endSize=14;sourcePerimeterSpacing=8;targetPerimeterSpacing=8;entryX=0;entryY=0.5;entryDx=0;entryDy=0;exitX=0;exitY=0.5;exitDx=0;exitDy=0;" edge="1" parent="1" source="z80ZJ2VIJwZ441V7eBd7-134" target="z80ZJ2VIJwZ441V7eBd7-80">
          <mxGeometry width="100" height="100" relative="1" as="geometry">
            <mxPoint x="1480" y="485" as="sourcePoint" />
            <mxPoint x="1690" y="830" as="targetPoint" />
            <Array as="points">
              <mxPoint x="1310" y="380" />
            </Array>
          </mxGeometry>
        </mxCell>
        <mxCell id="z80ZJ2VIJwZ441V7eBd7-104" value="Ort" style="shape=table;startSize=30;container=1;collapsible=1;childLayout=tableLayout;fixedRows=1;rowLines=0;fontStyle=1;align=center;resizeLast=1;hachureGap=4;" vertex="1" parent="1">
          <mxGeometry x="1360" width="200" height="140" as="geometry" />
        </mxCell>
        <mxCell id="z80ZJ2VIJwZ441V7eBd7-105" value="" style="shape=tableRow;horizontal=0;startSize=0;swimlaneHead=0;swimlaneBody=0;fillColor=none;collapsible=0;dropTarget=0;points=[[0,0.5],[1,0.5]];portConstraint=eastwest;top=0;left=0;right=0;bottom=1;hachureGap=4;" vertex="1" parent="z80ZJ2VIJwZ441V7eBd7-104">
          <mxGeometry y="30" width="200" height="30" as="geometry" />
        </mxCell>
        <mxCell id="z80ZJ2VIJwZ441V7eBd7-106" value="PK" style="shape=partialRectangle;connectable=0;fillColor=none;top=0;left=0;bottom=0;right=0;fontStyle=1;overflow=hidden;hachureGap=4;" vertex="1" parent="z80ZJ2VIJwZ441V7eBd7-105">
          <mxGeometry width="30" height="30" as="geometry">
            <mxRectangle width="30" height="30" as="alternateBounds" />
          </mxGeometry>
        </mxCell>
        <mxCell id="z80ZJ2VIJwZ441V7eBd7-107" value="PLZ int NOT NULL" style="shape=partialRectangle;connectable=0;fillColor=none;top=0;left=0;bottom=0;right=0;align=left;spacingLeft=6;fontStyle=5;overflow=hidden;hachureGap=4;" vertex="1" parent="z80ZJ2VIJwZ441V7eBd7-105">
          <mxGeometry x="30" width="170" height="30" as="geometry">
            <mxRectangle width="170" height="30" as="alternateBounds" />
          </mxGeometry>
        </mxCell>
        <mxCell id="z80ZJ2VIJwZ441V7eBd7-108" value="" style="shape=tableRow;horizontal=0;startSize=0;swimlaneHead=0;swimlaneBody=0;fillColor=none;collapsible=0;dropTarget=0;points=[[0,0.5],[1,0.5]];portConstraint=eastwest;top=0;left=0;right=0;bottom=0;hachureGap=4;" vertex="1" parent="z80ZJ2VIJwZ441V7eBd7-104">
          <mxGeometry y="60" width="200" height="30" as="geometry" />
        </mxCell>
        <mxCell id="z80ZJ2VIJwZ441V7eBd7-109" value="" style="shape=partialRectangle;connectable=0;fillColor=none;top=0;left=0;bottom=0;right=0;editable=1;overflow=hidden;hachureGap=4;" vertex="1" parent="z80ZJ2VIJwZ441V7eBd7-108">
          <mxGeometry width="30" height="30" as="geometry">
            <mxRectangle width="30" height="30" as="alternateBounds" />
          </mxGeometry>
        </mxCell>
        <mxCell id="z80ZJ2VIJwZ441V7eBd7-110" value="ortsname varchar NOT NULL" style="shape=partialRectangle;connectable=0;fillColor=none;top=0;left=0;bottom=0;right=0;align=left;spacingLeft=6;overflow=hidden;hachureGap=4;" vertex="1" parent="z80ZJ2VIJwZ441V7eBd7-108">
          <mxGeometry x="30" width="170" height="30" as="geometry">
            <mxRectangle width="170" height="30" as="alternateBounds" />
          </mxGeometry>
        </mxCell>
        <mxCell id="z80ZJ2VIJwZ441V7eBd7-111" value="" style="shape=tableRow;horizontal=0;startSize=0;swimlaneHead=0;swimlaneBody=0;fillColor=none;collapsible=0;dropTarget=0;points=[[0,0.5],[1,0.5]];portConstraint=eastwest;top=0;left=0;right=0;bottom=0;hachureGap=4;" vertex="1" parent="z80ZJ2VIJwZ441V7eBd7-104">
          <mxGeometry y="90" width="200" height="20" as="geometry" />
        </mxCell>
        <mxCell id="z80ZJ2VIJwZ441V7eBd7-112" value="" style="shape=partialRectangle;connectable=0;fillColor=none;top=0;left=0;bottom=0;right=0;editable=1;overflow=hidden;hachureGap=4;" vertex="1" parent="z80ZJ2VIJwZ441V7eBd7-111">
          <mxGeometry width="30" height="20" as="geometry">
            <mxRectangle width="30" height="20" as="alternateBounds" />
          </mxGeometry>
        </mxCell>
        <mxCell id="z80ZJ2VIJwZ441V7eBd7-113" value="" style="shape=partialRectangle;connectable=0;fillColor=none;top=0;left=0;bottom=0;right=0;align=left;spacingLeft=6;overflow=hidden;hachureGap=4;" vertex="1" parent="z80ZJ2VIJwZ441V7eBd7-111">
          <mxGeometry x="30" width="170" height="20" as="geometry">
            <mxRectangle width="170" height="20" as="alternateBounds" />
          </mxGeometry>
        </mxCell>
        <mxCell id="z80ZJ2VIJwZ441V7eBd7-114" value="" style="shape=tableRow;horizontal=0;startSize=0;swimlaneHead=0;swimlaneBody=0;fillColor=none;collapsible=0;dropTarget=0;points=[[0,0.5],[1,0.5]];portConstraint=eastwest;top=0;left=0;right=0;bottom=0;hachureGap=4;" vertex="1" parent="z80ZJ2VIJwZ441V7eBd7-104">
          <mxGeometry y="110" width="200" height="30" as="geometry" />
        </mxCell>
        <mxCell id="z80ZJ2VIJwZ441V7eBd7-115" value="" style="shape=partialRectangle;connectable=0;fillColor=none;top=0;left=0;bottom=0;right=0;editable=1;overflow=hidden;hachureGap=4;" vertex="1" parent="z80ZJ2VIJwZ441V7eBd7-114">
          <mxGeometry width="30" height="30" as="geometry">
            <mxRectangle width="30" height="30" as="alternateBounds" />
          </mxGeometry>
        </mxCell>
        <mxCell id="z80ZJ2VIJwZ441V7eBd7-116" value="" style="shape=partialRectangle;connectable=0;fillColor=none;top=0;left=0;bottom=0;right=0;align=left;spacingLeft=6;overflow=hidden;hachureGap=4;" vertex="1" parent="z80ZJ2VIJwZ441V7eBd7-114">
          <mxGeometry x="30" width="170" height="30" as="geometry">
            <mxRectangle width="170" height="30" as="alternateBounds" />
          </mxGeometry>
        </mxCell>
        <mxCell id="z80ZJ2VIJwZ441V7eBd7-119" value="" style="edgeStyle=elbowEdgeStyle;fontSize=12;html=1;endArrow=ERoneToMany;rounded=0;startSize=14;endSize=14;sourcePerimeterSpacing=8;targetPerimeterSpacing=8;exitX=1;exitY=0.5;exitDx=0;exitDy=0;entryX=1;entryY=0.5;entryDx=0;entryDy=0;" edge="1" parent="1" source="z80ZJ2VIJwZ441V7eBd7-105" target="z80ZJ2VIJwZ441V7eBd7-71">
          <mxGeometry width="100" height="100" relative="1" as="geometry">
            <mxPoint x="1630" y="580" as="sourcePoint" />
            <mxPoint x="1730" y="480" as="targetPoint" />
            <Array as="points">
              <mxPoint x="1600" y="170" />
            </Array>
          </mxGeometry>
        </mxCell>
        <mxCell id="z80ZJ2VIJwZ441V7eBd7-120" value="Disponent" style="shape=table;startSize=30;container=1;collapsible=1;childLayout=tableLayout;fixedRows=1;rowLines=0;fontStyle=1;align=center;resizeLast=1;hachureGap=4;" vertex="1" parent="1">
          <mxGeometry x="860" y="340" width="220" height="140" as="geometry">
            <mxRectangle x="880" y="440" width="90" height="30" as="alternateBounds" />
          </mxGeometry>
        </mxCell>
        <mxCell id="z80ZJ2VIJwZ441V7eBd7-121" value="" style="shape=tableRow;horizontal=0;startSize=0;swimlaneHead=0;swimlaneBody=0;fillColor=none;collapsible=0;dropTarget=0;points=[[0,0.5],[1,0.5]];portConstraint=eastwest;top=0;left=0;right=0;bottom=1;hachureGap=4;" vertex="1" parent="z80ZJ2VIJwZ441V7eBd7-120">
          <mxGeometry y="30" width="220" height="30" as="geometry" />
        </mxCell>
        <mxCell id="z80ZJ2VIJwZ441V7eBd7-122" value="PK" style="shape=partialRectangle;connectable=0;fillColor=none;top=0;left=0;bottom=0;right=0;fontStyle=1;overflow=hidden;hachureGap=4;" vertex="1" parent="z80ZJ2VIJwZ441V7eBd7-121">
          <mxGeometry width="30" height="30" as="geometry">
            <mxRectangle width="30" height="30" as="alternateBounds" />
          </mxGeometry>
        </mxCell>
        <mxCell id="z80ZJ2VIJwZ441V7eBd7-123" value="disponent_id int NOT NULL" style="shape=partialRectangle;connectable=0;fillColor=none;top=0;left=0;bottom=0;right=0;align=left;spacingLeft=6;fontStyle=5;overflow=hidden;hachureGap=4;" vertex="1" parent="z80ZJ2VIJwZ441V7eBd7-121">
          <mxGeometry x="30" width="190" height="30" as="geometry">
            <mxRectangle width="190" height="30" as="alternateBounds" />
          </mxGeometry>
        </mxCell>
        <mxCell id="z80ZJ2VIJwZ441V7eBd7-124" value="" style="shape=tableRow;horizontal=0;startSize=0;swimlaneHead=0;swimlaneBody=0;fillColor=none;collapsible=0;dropTarget=0;points=[[0,0.5],[1,0.5]];portConstraint=eastwest;top=0;left=0;right=0;bottom=0;hachureGap=4;" vertex="1" parent="z80ZJ2VIJwZ441V7eBd7-120">
          <mxGeometry y="60" width="220" height="30" as="geometry" />
        </mxCell>
        <mxCell id="z80ZJ2VIJwZ441V7eBd7-125" value="FK1" style="shape=partialRectangle;connectable=0;fillColor=none;top=0;left=0;bottom=0;right=0;editable=1;overflow=hidden;hachureGap=4;" vertex="1" parent="z80ZJ2VIJwZ441V7eBd7-124">
          <mxGeometry width="30" height="30" as="geometry">
            <mxRectangle width="30" height="30" as="alternateBounds" />
          </mxGeometry>
        </mxCell>
        <mxCell id="z80ZJ2VIJwZ441V7eBd7-126" value="person_id int NOT NULL" style="shape=partialRectangle;connectable=0;fillColor=none;top=0;left=0;bottom=0;right=0;align=left;spacingLeft=6;overflow=hidden;hachureGap=4;" vertex="1" parent="z80ZJ2VIJwZ441V7eBd7-124">
          <mxGeometry x="30" width="190" height="30" as="geometry">
            <mxRectangle width="190" height="30" as="alternateBounds" />
          </mxGeometry>
        </mxCell>
        <mxCell id="z80ZJ2VIJwZ441V7eBd7-127" value="" style="shape=tableRow;horizontal=0;startSize=0;swimlaneHead=0;swimlaneBody=0;fillColor=none;collapsible=0;dropTarget=0;points=[[0,0.5],[1,0.5]];portConstraint=eastwest;top=0;left=0;right=0;bottom=0;hachureGap=4;" vertex="1" parent="z80ZJ2VIJwZ441V7eBd7-120">
          <mxGeometry y="90" width="220" height="20" as="geometry" />
        </mxCell>
        <mxCell id="z80ZJ2VIJwZ441V7eBd7-128" value="" style="shape=partialRectangle;connectable=0;fillColor=none;top=0;left=0;bottom=0;right=0;editable=1;overflow=hidden;hachureGap=4;" vertex="1" parent="z80ZJ2VIJwZ441V7eBd7-127">
          <mxGeometry width="30" height="20" as="geometry">
            <mxRectangle width="30" height="20" as="alternateBounds" />
          </mxGeometry>
        </mxCell>
        <mxCell id="z80ZJ2VIJwZ441V7eBd7-129" value="" style="shape=partialRectangle;connectable=0;fillColor=none;top=0;left=0;bottom=0;right=0;align=left;spacingLeft=6;overflow=hidden;hachureGap=4;" vertex="1" parent="z80ZJ2VIJwZ441V7eBd7-127">
          <mxGeometry x="30" width="190" height="20" as="geometry">
            <mxRectangle width="190" height="20" as="alternateBounds" />
          </mxGeometry>
        </mxCell>
        <mxCell id="z80ZJ2VIJwZ441V7eBd7-130" value="" style="shape=tableRow;horizontal=0;startSize=0;swimlaneHead=0;swimlaneBody=0;fillColor=none;collapsible=0;dropTarget=0;points=[[0,0.5],[1,0.5]];portConstraint=eastwest;top=0;left=0;right=0;bottom=0;hachureGap=4;" vertex="1" parent="z80ZJ2VIJwZ441V7eBd7-120">
          <mxGeometry y="110" width="220" height="20" as="geometry" />
        </mxCell>
        <mxCell id="z80ZJ2VIJwZ441V7eBd7-131" value="" style="shape=partialRectangle;connectable=0;fillColor=none;top=0;left=0;bottom=0;right=0;editable=1;overflow=hidden;hachureGap=4;" vertex="1" parent="z80ZJ2VIJwZ441V7eBd7-130">
          <mxGeometry width="30" height="20" as="geometry">
            <mxRectangle width="30" height="20" as="alternateBounds" />
          </mxGeometry>
        </mxCell>
        <mxCell id="z80ZJ2VIJwZ441V7eBd7-132" value="" style="shape=partialRectangle;connectable=0;fillColor=none;top=0;left=0;bottom=0;right=0;align=left;spacingLeft=6;overflow=hidden;hachureGap=4;" vertex="1" parent="z80ZJ2VIJwZ441V7eBd7-130">
          <mxGeometry x="30" width="190" height="20" as="geometry">
            <mxRectangle width="190" height="20" as="alternateBounds" />
          </mxGeometry>
        </mxCell>
        <mxCell id="z80ZJ2VIJwZ441V7eBd7-133" value="Fahrer" style="shape=table;startSize=30;container=1;collapsible=1;childLayout=tableLayout;fixedRows=1;rowLines=0;fontStyle=1;align=center;resizeLast=1;hachureGap=4;" vertex="1" parent="1">
          <mxGeometry x="1360" y="390" width="220" height="160" as="geometry">
            <mxRectangle x="1275" y="470" width="90" height="30" as="alternateBounds" />
          </mxGeometry>
        </mxCell>
        <mxCell id="z80ZJ2VIJwZ441V7eBd7-134" value="" style="shape=tableRow;horizontal=0;startSize=0;swimlaneHead=0;swimlaneBody=0;fillColor=none;collapsible=0;dropTarget=0;points=[[0,0.5],[1,0.5]];portConstraint=eastwest;top=0;left=0;right=0;bottom=1;hachureGap=4;" vertex="1" parent="z80ZJ2VIJwZ441V7eBd7-133">
          <mxGeometry y="30" width="220" height="30" as="geometry" />
        </mxCell>
        <mxCell id="z80ZJ2VIJwZ441V7eBd7-135" value="PK" style="shape=partialRectangle;connectable=0;fillColor=none;top=0;left=0;bottom=0;right=0;fontStyle=1;overflow=hidden;hachureGap=4;" vertex="1" parent="z80ZJ2VIJwZ441V7eBd7-134">
          <mxGeometry width="30" height="30" as="geometry">
            <mxRectangle width="30" height="30" as="alternateBounds" />
          </mxGeometry>
        </mxCell>
        <mxCell id="z80ZJ2VIJwZ441V7eBd7-136" value="driver_id int NOT NULL" style="shape=partialRectangle;connectable=0;fillColor=none;top=0;left=0;bottom=0;right=0;align=left;spacingLeft=6;fontStyle=5;overflow=hidden;hachureGap=4;" vertex="1" parent="z80ZJ2VIJwZ441V7eBd7-134">
          <mxGeometry x="30" width="190" height="30" as="geometry">
            <mxRectangle width="190" height="30" as="alternateBounds" />
          </mxGeometry>
        </mxCell>
        <mxCell id="z80ZJ2VIJwZ441V7eBd7-137" value="" style="shape=tableRow;horizontal=0;startSize=0;swimlaneHead=0;swimlaneBody=0;fillColor=none;collapsible=0;dropTarget=0;points=[[0,0.5],[1,0.5]];portConstraint=eastwest;top=0;left=0;right=0;bottom=0;hachureGap=4;" vertex="1" parent="z80ZJ2VIJwZ441V7eBd7-133">
          <mxGeometry y="60" width="220" height="30" as="geometry" />
        </mxCell>
        <mxCell id="z80ZJ2VIJwZ441V7eBd7-138" value="FK1" style="shape=partialRectangle;connectable=0;fillColor=none;top=0;left=0;bottom=0;right=0;editable=1;overflow=hidden;hachureGap=4;" vertex="1" parent="z80ZJ2VIJwZ441V7eBd7-137">
          <mxGeometry width="30" height="30" as="geometry">
            <mxRectangle width="30" height="30" as="alternateBounds" />
          </mxGeometry>
        </mxCell>
        <mxCell id="z80ZJ2VIJwZ441V7eBd7-139" value="person_id int NOT NULL" style="shape=partialRectangle;connectable=0;fillColor=none;top=0;left=0;bottom=0;right=0;align=left;spacingLeft=6;overflow=hidden;hachureGap=4;" vertex="1" parent="z80ZJ2VIJwZ441V7eBd7-137">
          <mxGeometry x="30" width="190" height="30" as="geometry">
            <mxRectangle width="190" height="30" as="alternateBounds" />
          </mxGeometry>
        </mxCell>
        <mxCell id="z80ZJ2VIJwZ441V7eBd7-140" value="" style="shape=tableRow;horizontal=0;startSize=0;swimlaneHead=0;swimlaneBody=0;fillColor=none;collapsible=0;dropTarget=0;points=[[0,0.5],[1,0.5]];portConstraint=eastwest;top=0;left=0;right=0;bottom=0;hachureGap=4;" vertex="1" parent="z80ZJ2VIJwZ441V7eBd7-133">
          <mxGeometry y="90" width="220" height="30" as="geometry" />
        </mxCell>
        <mxCell id="z80ZJ2VIJwZ441V7eBd7-141" value="" style="shape=partialRectangle;connectable=0;fillColor=none;top=0;left=0;bottom=0;right=0;editable=1;overflow=hidden;hachureGap=4;" vertex="1" parent="z80ZJ2VIJwZ441V7eBd7-140">
          <mxGeometry width="30" height="30" as="geometry">
            <mxRectangle width="30" height="30" as="alternateBounds" />
          </mxGeometry>
        </mxCell>
        <mxCell id="z80ZJ2VIJwZ441V7eBd7-142" value="" style="shape=partialRectangle;connectable=0;fillColor=none;top=0;left=0;bottom=0;right=0;align=left;spacingLeft=6;overflow=hidden;hachureGap=4;" vertex="1" parent="z80ZJ2VIJwZ441V7eBd7-140">
          <mxGeometry x="30" width="190" height="30" as="geometry">
            <mxRectangle width="190" height="30" as="alternateBounds" />
          </mxGeometry>
        </mxCell>
        <mxCell id="z80ZJ2VIJwZ441V7eBd7-143" value="" style="shape=tableRow;horizontal=0;startSize=0;swimlaneHead=0;swimlaneBody=0;fillColor=none;collapsible=0;dropTarget=0;points=[[0,0.5],[1,0.5]];portConstraint=eastwest;top=0;left=0;right=0;bottom=0;hachureGap=4;" vertex="1" parent="z80ZJ2VIJwZ441V7eBd7-133">
          <mxGeometry y="120" width="220" height="30" as="geometry" />
        </mxCell>
        <mxCell id="z80ZJ2VIJwZ441V7eBd7-144" value="" style="shape=partialRectangle;connectable=0;fillColor=none;top=0;left=0;bottom=0;right=0;editable=1;overflow=hidden;hachureGap=4;" vertex="1" parent="z80ZJ2VIJwZ441V7eBd7-143">
          <mxGeometry width="30" height="30" as="geometry">
            <mxRectangle width="30" height="30" as="alternateBounds" />
          </mxGeometry>
        </mxCell>
        <mxCell id="z80ZJ2VIJwZ441V7eBd7-145" value="" style="shape=partialRectangle;connectable=0;fillColor=none;top=0;left=0;bottom=0;right=0;align=left;spacingLeft=6;overflow=hidden;hachureGap=4;" vertex="1" parent="z80ZJ2VIJwZ441V7eBd7-143">
          <mxGeometry x="30" width="190" height="30" as="geometry">
            <mxRectangle width="190" height="30" as="alternateBounds" />
          </mxGeometry>
        </mxCell>
        <mxCell id="z80ZJ2VIJwZ441V7eBd7-146" value="" style="edgeStyle=elbowEdgeStyle;fontSize=12;html=1;endArrow=ERmandOne;startArrow=ERmandOne;rounded=0;startSize=14;endSize=14;sourcePerimeterSpacing=8;targetPerimeterSpacing=8;entryX=0;entryY=0.5;entryDx=0;entryDy=0;exitX=1;exitY=0.5;exitDx=0;exitDy=0;" edge="1" parent="1" source="z80ZJ2VIJwZ441V7eBd7-35" target="z80ZJ2VIJwZ441V7eBd7-137">
          <mxGeometry width="100" height="100" relative="1" as="geometry">
            <mxPoint x="1170" y="580" as="sourcePoint" />
            <mxPoint x="1270" y="480" as="targetPoint" />
          </mxGeometry>
        </mxCell>
        <mxCell id="z80ZJ2VIJwZ441V7eBd7-149" value="" style="edgeStyle=orthogonalEdgeStyle;fontSize=12;html=1;endArrow=ERmandOne;startArrow=ERmandOne;rounded=0;startSize=14;endSize=14;sourcePerimeterSpacing=8;targetPerimeterSpacing=8;entryX=1;entryY=0.5;entryDx=0;entryDy=0;exitX=0;exitY=0.5;exitDx=0;exitDy=0;" edge="1" parent="1" source="z80ZJ2VIJwZ441V7eBd7-35" target="z80ZJ2VIJwZ441V7eBd7-124">
          <mxGeometry width="100" height="100" relative="1" as="geometry">
            <mxPoint x="740" y="700" as="sourcePoint" />
            <mxPoint x="670" y="550" as="targetPoint" />
            <Array as="points">
              <mxPoint x="973" y="585" />
              <mxPoint x="973" y="500" />
              <mxPoint x="1110" y="500" />
              <mxPoint x="1110" y="415" />
            </Array>
          </mxGeometry>
        </mxCell>
      </root>
    </mxGraphModel>
  </diagram>
</mxfile>
